<svg xmlns="http://www.w3.org/2000/svg" width="32" height="32"><defs><clipPath id="a"><path d="M0 0h32v32H0z"/></clipPath></defs><g clip-path="url(#a)" data-name="FLOW-1 – 1"><rect width="30" height="30" fill="#0e0e10" data-name="Rectangle 6" rx="8" transform="translate(1 1)"/><g fill="#f7fafa" data-name="Group 1"><path d="m26.961 14.532-4.2-7.243a2.964 2.964 0 0 0-2.557-1.468h-8.4a2.967 2.967 0 0 0-2.557 1.468l-.223.384a.411.411 0 0 0 .713.409l.223-.384a2.136 2.136 0 0 1 1.839-1.059h8.4a2.141 2.141 0 0 1 1.848 1.059l4.2 7.243a2.114 2.114 0 0 1 0 2.116l-4.2 7.243a2.137 2.137 0 0 1-1.844 1.057h-8.4A2.138 2.138 0 0 1 9.959 24.3l-4.2-7.242a2.114 2.114 0 0 1 0-2.116l.08-.14a.408.408 0 0 0-.16-.565.413.413 0 0 0-.553.156l-.08.14a2.932 2.932 0 0 0 0 2.936l4.201 7.242a2.963 2.963 0 0 0 2.557 1.468h8.4a2.962 2.962 0 0 0 2.556-1.468l4.2-7.243a2.932 2.932 0 0 0 0-2.936" data-name="Path 27"/><path d="M14.47 15.695a2.187 2.187 0 0 0-2.192 2.185v3.851a.714.714 0 0 0 .716.712.268.268 0 0 0 .268-.267v-3.765c0-1.617.781-1.736 1.745-1.736h3.909a.715.715 0 0 0 .717-.713.268.268 0 0 0-.268-.267H14.47Z" data-name="Path 34"/><path d="M14.527 10.421a2.187 2.187 0 0 0-2.192 2.181v.046a.714.714 0 0 0 .716.712.268.268 0 0 0 .268-.267l.024-.373a.94.94 0 0 1 .019-.145c.222-1.106.825-1.162 1.7-1.175h3.909a.715.715 0 0 0 .716-.712.268.268 0 0 0-.268-.267Z" data-name="Path 35"/></g></g></svg>